<?xml version="1.0" standalone="no"?>
<!DOCTYPE svg PUBLIC "-//W3C//DTD SVG 20010904//EN"
 "http://www.w3.org/TR/2001/REC-SVG-20010904/DTD/svg10.dtd">
<svg version="1.0" xmlns="http://www.w3.org/2000/svg"
 width="194.000000pt" height="138.000000pt" viewBox="0 0 194.000000 138.000000"
 preserveAspectRatio="xMidYMid meet">
<metadata>
Created by potrace 1.16, written by Peter Selinger 2001-2019
</metadata>
<g transform="translate(0.000000,138.000000) scale(0.100000,-0.100000)"
fill="#000000" stroke="none">
<path d="M777 750 c-13 -18 -15 -18 -38 -3 -13 9 -19 10 -11 3 27 -31 2 -75
-48 -82 -22 -3 -25 -7 -23 -41 1 -34 0 -37 -14 -25 -15 12 -15 11 -3 -8 10
-16 10 -28 2 -54 -7 -18 -9 -37 -6 -42 4 -5 2 -20 -4 -31 -46 -100 -76 -147
-129 -207 -35 -39 -63 -77 -63 -85 0 -18 52 -29 93 -18 17 4 70 8 117 8 867 3
910 4 910 25 0 20 -7 20 -410 20 l-410 0 0 29 0 29 128 4 c141 4 166 12 237
77 l40 36 -34 -37 c-39 -42 -34 -48 13 -18 36 21 85 80 104 123 20 47 15 110
-11 135 l-23 22 3 -38 3 -37 -10 31 c-14 46 -50 73 -105 80 -35 5 -46 4 -41
-4 5 -9 0 -9 -19 -2 -15 6 -37 10 -51 10 -13 0 -24 4 -24 10 0 16 -61 80 -91
96 -38 19 -65 18 -82 -6z m29 -7 c-3 -10 1 -31 9 -48 l13 -30 1 33 c1 20 -3
31 -9 27 -5 -3 -10 -1 -10 4 0 6 12 11 26 11 20 0 25 -4 20 -16 -5 -13 -3 -14
7 -6 7 6 18 7 27 2 11 -7 11 -11 1 -24 -8 -10 -9 -16 -3 -16 6 0 14 5 17 11
10 16 34 -22 35 -54 0 -16 -4 -26 -10 -22 -5 3 -10 17 -10 31 0 22 -2 23 -14
12 -8 -8 -16 -23 -19 -34 -4 -16 -5 -16 -6 4 0 12 -5 22 -11 22 -5 0 -11 12
-11 28 l-2 27 -4 -28 c-3 -17 -9 -25 -16 -21 -7 4 -2 -4 11 -18 12 -13 22 -32
22 -41 0 -21 -73 -226 -94 -263 l-17 -29 6 40 c3 22 2 52 -4 65 -9 24 -10 24
-10 3 -1 -25 -23 -43 -29 -24 -3 9 -8 9 -17 1 -17 -14 -65 -2 -65 15 0 15 13
20 73 31 l38 6 -7 97 c-4 53 -11 104 -16 114 -11 21 20 69 40 62 7 -2 12 4 12
14 0 19 8 31 22 31 5 0 7 -8 4 -17z m312 -158 c20 -24 23 -35 18 -69 -10 -61
-56 -146 -98 -180 -29 -22 -51 -30 -93 -34 -52 -4 -55 -3 -55 18 0 13 19 79
43 148 37 111 43 121 47 91 l5 -33 13 28 c6 15 8 24 2 21 -5 -3 -10 -2 -10 4
0 5 -3 16 -6 24 -5 13 4 15 52 13 49 -2 61 -7 82 -31z"/>
<path d="M1356 652 c-3 -5 1 -12 9 -16 23 -9 18 -42 -25 -164 -49 -139 -64
-169 -90 -177 -35 -11 -22 -25 24 -25 26 0 46 5 49 13 4 9 6 9 6 0 1 -9 18
-13 51 -13 51 0 61 8 35 30 -19 16 -19 24 1 89 l15 52 52 -3 c45 -3 52 -6 55
-25 6 -41 28 -24 45 34 8 32 14 59 12 61 -2 3 -16 -5 -31 -17 -30 -24 -114
-30 -113 -8 0 6 10 39 22 72 22 60 22 60 65 63 47 4 72 -10 72 -39 0 -11 4
-19 10 -19 12 0 26 27 34 69 6 33 6 33 -25 27 -17 -3 -64 -6 -105 -6 -61 0
-73 -3 -77 -17 -4 -17 -5 -17 -6 0 0 9 -9 17 -18 17 -10 0 -28 3 -39 6 -12 3
-24 1 -28 -4z"/>
</g>
</svg>
